Coordinates
version=1
nRows=8
nColumns=36
inDegrees=yes

Units are S.I. units (second, meters, Newtons, ...)
If the header above contains a line with 'inDegrees', this indicates whether rotational values are in degrees (yes) or radians (no).

endheader
time	pelvis_tilt	pelvis_list	pelvis_rotation	pelvis_tx	pelvis_ty	pelvis_tz	hip_flexion_r	hip_adduction_r	hip_rotation_r	knee_angle_r	knee_angle_r_beta	ankle_angle_r	subtalar_angle_r	mtp_angle_r	hip_flexion_l	hip_adduction_l	hip_rotation_l	knee_angle_l	knee_angle_l_beta	ankle_angle_l	subtalar_angle_l	mtp_angle_l	lumbar_extension	lumbar_bending	lumbar_rotation	arm_flex_r	arm_add_r	arm_rot_r	elbow_flex_r	pro_sup_r	arm_flex_l	arm_add_l	arm_rot_l	elbow_flex_l	pro_sup_l
      0.00000000	      5.29870119	      1.45726667	     -3.13464373	     -0.99056814	      1.31915377	     -0.06974859	     -5.97718553	     -3.88593417	      3.74091916	      2.78215066	      0.04855769	      6.30543547	    -11.62122843	     -6.72630875	     -5.77501572	     -0.97029636	      1.70217603	      2.28071566	      0.03980600	      8.55853725	     -6.06291909	     -6.72630875	    -17.07639684	      0.45655989	      0.31922557	      9.22331277	     -6.87922644	     27.30280989	     24.93102403	     70.32919002	      6.46303563	     -6.17700250	     23.52042015	     27.60336889	     66.29329836
      0.00416670	      6.40872684	      1.35499107	     -2.99597690	     -0.99231849	      1.32124042	     -0.07045147	     -7.46056968	     -3.56004397	      4.97801181	      2.04355413	      0.03566675	      8.40205837	    -11.24161243	     -7.15357804	     -7.20533419	     -0.80238245	      3.62694236	      1.72149440	      0.03004575	      8.19479515	     -7.68252419	     -7.15357804	    -18.12156179	      0.67700750	      0.36427648	      9.47070645	     -6.63812540	     24.80107630	     25.05687646	     74.67461218	      6.78505777	     -5.74124335	     21.77954280	     28.29461838	     70.23801732
      0.00833330	      5.83923030	      1.49501904	     -3.28738914	     -0.99205533	      1.32124604	     -0.06914295	     -6.99487404	     -3.58385934	      5.19998126	      1.52640361	      0.02664077	      8.11711642	    -12.37879806	     -7.32811284	     -6.55948904	     -0.68493165	      4.00369550	      1.74798443	      0.03050808	      8.25336472	     -7.97823216	     -7.32811284	    -17.75718165	      0.21877661	      0.98652220	      9.03929906	     -5.90406542	     20.24413207	     25.39067169	     80.37763348	      7.20214328	     -5.48018184	     20.26761703	     27.92921404	     74.42730059
      0.01250000	      6.82418141	      1.42352931	     -3.40896911	     -0.99334954	      1.32265500	     -0.06886760	     -8.09619529	     -3.61567128	      5.45644078	      1.26401063	      0.02206115	      7.82219719	    -13.01988334	     -7.40575035	     -7.79165840	     -0.71693301	      4.66216723	      1.29812239	      0.02265651	      8.15721603	     -8.49515794	     -7.40575035	    -19.22144315	      0.05735611	      1.36920040	      8.90465103	     -5.35985551	     16.41511527	     25.90927874	     84.01556384	      7.73217909	     -5.24259532	     18.79005963	     27.81882053	     77.96081814
      0.01666670	      7.07349170	      1.34311537	     -3.50904806	     -0.99353349	      1.32342426	     -0.06884556	     -8.36388535	     -3.57480756	      5.60898316	      1.15158407	      0.02009893	      7.43240822	    -13.61782652	     -7.47572632	     -8.15881567	     -0.79892724	      5.14399434	      1.07328363	      0.01873233	      8.22073253	     -8.81378057	     -7.47572632	    -19.71726518	      0.05279527	      1.51644701	      8.77508880	     -5.05602575	     14.57908924	     26.39128868	     87.40125783	      7.73477085	     -4.98503370	     17.07773357	     28.01770639	     81.36592519
      0.02083330	      7.39217301	      1.31778811	     -3.58419217	     -0.99471845	      1.32110903	     -0.06905023	     -8.65518554	     -3.58900787	      5.93235960	      1.12904312	      0.01970552	      7.18050280	    -14.16350474	     -7.49598518	     -8.53043796	     -0.80169395	      5.44824288	      1.03475566	      0.01805989	      8.47938788	     -9.14113434	     -7.49598518	    -20.11646786	      0.04801750	      1.72062850	      8.75968638	     -5.04697820	     14.29107035	     26.82956665	     88.60629251	      7.77477396	     -4.86311471	     16.24600288	     28.29808747	     83.72604632
      0.02500000	      7.61613600	      1.31758151	     -3.60667032	     -0.99440873	      1.32192162	     -0.06880593	     -8.88814040	     -3.61909928	      6.15298561	      1.09571363	      0.01912381	      6.89643325	    -14.56339918	     -7.49785621	     -8.80676119	     -0.79678603	      5.82021338	      1.00139144	      0.01747758	      8.53915038	     -9.59788277	     -7.49785621	    -20.30797961	      0.04535880	      1.89724778	      8.75829406	     -5.26799684	     16.14901545	     27.13278227	     82.85972196	      7.78223237	     -4.88850733	     17.20982062	     28.69767451	     78.67701523
      0.02916670	      7.52849330	      1.32535766	     -3.60686875	     -0.99390968	      1.32343520	     -0.06899939	     -8.78648074	     -3.63149204	      6.36001088	      1.07522572	      0.01876623	      6.60210568	    -14.82747747	     -7.49950444	     -8.72763472	     -0.78262921	      6.15649605	      1.01742188	      0.01775736	      8.43310490	    -10.07143847	     -7.49950444	    -20.06316821	      0.09148985	      1.85925284	      8.78087524	     -5.32625499	     16.18492619	     27.03893940	     88.89834356	      7.63882416	     -4.72022904	     15.66325867	     28.67261419	     86.89910348
